<svg width="48" height="48" viewBox="0 0 24 24" fill="none"
  xmlns="http://www.w3.org/2000/svg">
  <path d="M15.532 17.5313H17.0938V20.6563C17.0938 21.9487 16.0429 23 14.7513 23H5.34238C4.05087 23 3 21.9487 3 20.6563V5.34368C3 4.05146 4.05087 3 5.34238 3H14.7513C16.0429 3 17.0938 4.05146 17.0938 5.34368V8.46874H15.532V5.34368C15.532 4.91299 15.1819 4.56245 14.7513 4.56245H5.34238C4.91193 4.56245 4.56158 4.91299 4.56158 5.34368V20.6563C4.56158 21.087 4.91193 21.4375 5.34238 21.4375H14.7513C15.1819 21.4375 15.532 21.087 15.532 20.6563V17.5313ZM19.3191 9.31699L18.2148 10.4219L20.0107 12.2188H9.91025V13.7813H20.0107L18.2148 15.5781L19.3191 16.683L23 13.0001L19.3191 9.31699Z" fill="white"/>
</svg>
