<svg width="364" height="264" viewBox="0 0 182 132" fill="none" xmlns="http://www.w3.org/2000/svg">
<path fill-rule="evenodd" clip-rule="evenodd" d="M197 46.3697C192.273 56.9381 181.701 58.45 177.399 58.45H86.6202C78.8805 58.45 73.1028 63.4909 76.4529 72.194L83.1164 89.8031L84.3975 93.0813C88.0165 102.562 81.9238 109.769 72.9046 109.472L3.11995 109.465L1.91711 111.008C-2.72459 106.539 2.00428 102.272 6.14836 102.305C7.86955 94.1104 18.8374 94.1104 24.6663 94.11L38.3987 94.1111C41.8657 94.1901 46.2775 90.8971 43.3222 83.1551L38.8608 71.4662C33.2613 56.7989 43.7694 46.3693 57.625 46.3712L197 46.3697Z" fill="#0F77C1"/>
<path fill-rule="evenodd" clip-rule="evenodd" d="M184.811 67.4222L185.204 67.4696C179.933 77.0614 177.83 80.8866 165.016 80.8866H101.432C95.0137 80.8866 95.0137 71.4666 101.817 71.4666L175.066 71.4658C180.591 71.5813 183.363 69.8804 184.811 67.4222Z" fill="#0F77C1"/>
<path fill-rule="evenodd" clip-rule="evenodd" d="M172.365 89.8587L172.758 89.9058C167.486 99.4976 165.383 103.323 152.57 103.323H105.943C99.525 103.323 99.525 93.9027 106.328 93.9027L162.619 93.902C168.144 94.0178 170.917 92.3162 172.365 89.8587Z" fill="#0F77C1"/>
<path fill-rule="evenodd" clip-rule="evenodd" d="M144.406 23.1361C150.217 28.9148 154.938 35.3661 158.572 42.2385H122.474C120.656 40.5267 118.782 38.876 116.856 37.2929C104.288 26.962 89.5914 19.5259 74.7949 16.932C57.4368 13.8879 43.2232 18.08 34.2772 27.3173C25.3319 36.553 21.6511 50.8366 25.3604 67.9726C26.1411 71.491 27.059 75.0211 28.0151 78.5329C29.3431 82.0556 29.5459 85.9624 25.568 86.5436C24.0567 86.7457 22.524 86.675 21.0127 86.8814C17.0778 87.4203 13.1874 88.7071 9.64104 90.4725C6.14159 66.6232 13.6131 41.4858 32.0642 23.1361C63.0816 -7.71202 113.389 -7.71202 144.406 23.1361ZM52.5539 114.388C66.4818 127.971 84.0005 137.966 101.662 141.062C121.46 144.535 137.168 138.593 145.635 126.487C147.744 123.471 149.403 120.071 150.566 116.342H158.256C154.665 122.995 150.053 129.249 144.406 134.864C113.389 165.712 63.0816 165.712 32.0642 134.864C25.869 128.702 20.9158 121.774 17.195 114.388H52.5539Z" fill="#0F77C1"/>
</svg>
