<svg width="844" height="264" viewBox="0 0 211 66" fill="none" 
    xmlns="http://www.w3.org/2000/svg">
    <path d="M201.322 44.0433L194.591 55.4567V61.7242V62.3277H193.891H189.448H188.748V61.7242V55.5175L182.202 44.0363L181.708 43.1691H182.829H187.9H188.356L188.541 43.532L191.91 50.1346L195.352 43.5273L195.539 43.1691H195.99H200.699H201.838L201.322 44.0433Z" fill="#0065AE"/>
    <path d="M181.407 61.0385C180.328 61.5754 179.129 61.9771 177.811 62.2436C176.505 62.5076 175.083 62.6399 173.545 62.6399C171.807 62.6399 170.244 62.427 168.858 62.0024C167.452 61.5715 166.232 60.9236 165.199 60.0587C164.164 59.1912 163.388 58.1664 162.872 56.9844C162.361 55.8147 162.105 54.498 162.105 53.033C162.105 51.5425 162.386 50.1855 162.947 48.9633C163.511 47.7348 164.358 46.646 165.488 45.6985C166.616 44.7524 167.923 44.0428 169.407 43.5705C170.877 43.1022 172.518 42.8682 174.326 42.8682C175.466 42.8682 176.544 42.9385 177.561 43.0798C178.582 43.2217 179.529 43.435 180.402 43.719L180.856 43.8671V44.2824V47.9102V48.9579L179.805 48.4309C179.052 48.0532 178.216 47.7697 177.299 47.5808C176.374 47.3906 175.352 47.2948 174.235 47.2948C173.316 47.2948 172.493 47.4215 171.765 47.6738C171.045 47.9233 170.408 48.299 169.853 48.7998C169.297 49.3037 168.879 49.8871 168.602 50.5497C168.32 51.2233 168.178 51.9893 168.178 52.8471C168.178 53.7266 168.306 54.5009 168.562 55.1677C168.811 55.8134 169.183 56.3676 169.68 56.828L169.682 56.8306C170.175 57.2906 170.754 57.6351 171.42 57.8632C172.101 58.0965 172.886 58.2131 173.775 58.2131C174.316 58.2131 174.8 58.1784 175.224 58.1087C175.472 58.0681 175.702 58.0158 175.914 57.9514V55.27H172.402H171.701V54.6668V51.5929V50.9897H172.402H181.056H181.757V51.5929V60.5177V60.864L181.407 61.0385Z" fill="#0065AE"/>
    <path d="M150.007 47.2832V51.2471H151.488C151.93 51.2471 152.321 51.1941 152.659 51.0883C152.984 50.987 153.269 50.835 153.512 50.6335H153.515C153.759 50.4322 153.943 50.2065 154.064 49.9568C154.186 49.7066 154.247 49.4254 154.247 49.1127C154.247 48.489 154.049 48.0344 153.654 47.75C153.222 47.4391 152.526 47.2832 151.567 47.2832H150.007ZM162.068 62.3277H156.95H156.556L156.351 62.0353L153.08 57.3634V57.3611C152.761 56.9011 152.47 56.5231 152.208 56.228C151.971 55.9614 151.771 55.7756 151.61 55.6724L151.604 55.6698C151.446 55.5667 151.287 55.4907 151.127 55.442C150.977 55.396 150.818 55.3731 150.652 55.3731H150.007V61.7242V62.3277H149.306H144.864H144.164V61.7242V43.7723V43.1691H144.864H152.173C154.807 43.1691 156.808 43.6161 158.176 44.5102C159.602 45.4428 160.315 46.8188 160.315 48.6381C160.315 49.314 160.199 49.9469 159.966 50.5354C159.732 51.1255 159.38 51.6666 158.912 52.1584H158.912C158.449 52.6481 157.899 53.0636 157.265 53.405C157.02 53.5373 156.762 53.6583 156.491 53.7687C156.645 53.8794 156.801 54.0015 156.957 54.1356C157.522 54.6209 158.111 55.2687 158.721 56.0762L158.724 56.0809L162.656 61.4016L163.341 62.3277H162.068Z" fill="#0065AE"/>
    <path d="M122.224 62.3277H117.672H117.294L117.086 62.0541L108.598 50.8878C108.6 51.091 108.602 51.2995 108.602 51.5141V61.7242V62.3277H107.901H103.689H102.988V61.7242V43.7723V43.1691H103.689H108.535H108.913L109.121 43.4448L117.312 54.3118L117.311 54.0062V43.7723V43.1691H118.012H122.224H122.925V43.7723V61.7242V62.3277H122.224Z" fill="#0065AE"/>
    <path d="M99.2901 62.3276H85.5005H84.7999V61.7241V43.7722V43.169H85.5005H99.3435H100.044V43.7722V46.9012V47.5047H99.3435H90.6431V50.527H98.2794H98.9802V51.1302V54.2475V54.8507H98.2794H90.6431V57.9917H99.2901H99.9907V58.5949V61.7241V62.3276H99.2901Z" fill="#0065AE"/>
    <path d="M140.545 62.3276H126.756H126.055V61.7241V43.7722V43.169H126.756H140.599H141.299V43.7722V46.9012V47.5047H140.599H131.898V50.527H139.535H140.235V51.1302V54.2475V54.8507H139.535H131.898V57.9917H140.545H141.246V58.5949V61.7241V62.3276H140.545Z" fill="#0065AE"/>
    <path d="M209.605 38.573H203.949H203.583L203.372 38.3106L197.686 31.262V37.968V38.573H196.982H192.518H191.814V37.968V19.9695V19.3646H192.518H196.982H197.686V19.9695V26.3912L203.073 19.6292L203.284 19.3646H203.654H208.982H210.386L209.543 20.3309L202.363 28.5581L210.169 37.609L211 38.573H209.605Z" fill="#0065AE"/>
    <path d="M189.096 30.2301C189.096 33.0702 188.307 35.2207 186.728 36.6795C185.137 38.1503 182.787 38.8862 179.68 38.8862C176.671 38.8862 174.395 38.1672 172.853 36.7299C171.327 35.3069 170.564 33.2102 170.564 30.4403V19.9695V19.3646H171.268H175.742H176.446V19.9695V30.4601C176.446 31.8202 176.74 32.8205 177.327 33.4599C177.873 34.055 178.721 34.3527 179.87 34.3527C180.999 34.3527 181.831 34.0675 182.366 33.4963C182.937 32.8861 183.223 31.928 183.223 30.6225V19.9695V19.3646H183.928H188.392H189.096V19.9695V30.2301Z" fill="#0065AE"/>
    <path d="M157.67 23.4895V27.4634H159.159C159.602 27.4634 159.995 27.4103 160.335 27.3043C160.662 27.2029 160.948 27.0504 161.193 26.8484L161.195 26.8458C161.442 26.6432 161.627 26.4177 161.747 26.1699C161.87 25.9191 161.931 25.637 161.931 25.3239C161.931 24.6984 161.733 24.2429 161.335 23.9574C160.901 23.6457 160.201 23.4895 159.237 23.4895H157.67ZM169.791 38.573H164.648H164.252L164.046 38.2801L160.759 33.596V33.5934C160.438 33.1323 160.145 32.7533 159.882 32.4573C159.644 32.1902 159.443 32.004 159.281 31.9004L159.276 31.8978C159.116 31.7946 158.956 31.7181 158.796 31.6696C158.644 31.6234 158.485 31.6004 158.319 31.6004H157.67V37.968V38.573H156.966H152.502H151.797V37.968V19.9695V19.3646H152.502H159.847C162.495 19.3646 164.505 19.8128 165.88 20.7091C167.313 21.6441 168.03 23.0237 168.03 24.8478C168.03 25.5255 167.913 26.1598 167.679 26.7502C167.444 27.3417 167.091 27.8844 166.619 28.3774L166.62 28.3775C166.155 28.8682 165.602 29.2848 164.965 29.6272C164.718 29.7597 164.459 29.8812 164.187 29.9917C164.342 30.1028 164.498 30.2254 164.655 30.3595C165.223 30.8462 165.814 31.4955 166.428 32.3052L166.431 32.3101L170.383 37.6444L171.071 38.573H169.791Z" fill="#0065AE"/>
    <path d="M142.494 37.9681V27.6471L138.113 38.1713L137.946 38.573H137.45H133.89H133.4L133.23 38.1738L128.749 27.6507L128.75 27.7908V37.9681V38.573H128.045H124.015H123.311V37.9681V19.9696V19.3646H124.015H130.511H131.007L131.174 19.7663L135.689 30.6417L135.687 30.6425C135.758 30.8128 135.826 30.9817 135.889 31.1479C135.958 30.965 136.026 30.7898 136.095 30.6224L136.097 30.618L140.631 19.7663L140.799 19.3646H141.291H147.607H148.311V19.9696V37.9681V38.573H147.607H143.198H142.494V37.9681Z" fill="#0065AE"/>
    <path d="M112.972 30.2756L111.146 25.4924L109.326 30.2756H112.972ZM121.436 38.573H116.565H116.056L115.897 38.1548L114.486 34.4481H107.893L106.509 38.1523L106.352 38.573H105.84H100.997H99.9918L100.337 37.7627L108.006 19.7639L108.176 19.3646H108.666H113.915H114.408L114.575 19.7663L122.096 37.7649L122.434 38.573H121.436Z" fill="#0065AE"/>
    <path d="M85.9377 32.9693C86.7217 33.527 87.554 33.945 88.4337 34.221C89.312 34.4967 90.2482 34.6347 91.2419 34.6347C91.7989 34.6347 92.2784 34.5946 92.6796 34.5153C93.0506 34.4419 93.3537 34.3356 93.5885 34.1976C93.8062 34.0696 93.9648 33.9308 94.0634 33.7818C94.1538 33.6454 94.1989 33.4874 94.1989 33.308C94.1989 33.1492 94.1597 32.9947 94.0809 32.8451C93.9934 32.6787 93.8564 32.5129 93.6703 32.3485L93.6646 32.3438C93.4737 32.1718 93.0899 31.9541 92.5151 31.6909C91.9009 31.4099 91.078 31.0848 90.049 30.7166L90.0436 30.7141C88.3005 30.0785 86.9835 29.2881 86.0928 28.3435C85.1686 27.3637 84.7068 26.2343 84.7068 24.9552C84.7068 24.0289 84.9161 23.197 85.3363 22.4599C85.7591 21.7179 86.3881 21.0865 87.2238 20.5671L87.2252 20.5687C88.0351 20.062 88.9721 19.6832 90.0357 19.4328C91.0842 19.1864 92.2482 19.0635 93.5273 19.0635C94.5859 19.0635 95.5626 19.1224 96.4566 19.2409V19.2432C97.3661 19.364 98.1919 19.5468 98.9327 19.7921L99.3838 19.9413V20.3544V23.9556V25.094L98.2864 24.4542C97.6439 24.0799 96.9466 23.7979 96.1952 23.6099C95.4421 23.4219 94.6253 23.3271 93.7443 23.3271C93.2415 23.3271 92.7984 23.3652 92.4144 23.4409C92.0486 23.5131 91.7335 23.6187 91.4692 23.7568C91.238 23.8786 91.0685 24.0134 90.9631 24.1608C90.868 24.2944 90.8196 24.4506 90.8196 24.63C90.8196 24.7763 90.8553 24.9171 90.9262 25.0512L90.9249 25.0518C91.0014 25.1949 91.124 25.3392 91.2919 25.4834V25.4858C91.4698 25.6404 91.8085 25.836 92.3061 26.0724C92.8478 26.3296 93.548 26.6194 94.4069 26.9425L94.4071 26.9423C95.4842 27.3391 96.4009 27.7514 97.1562 28.1787C97.9397 28.6216 98.5488 29.0808 98.9832 29.5555L98.9814 29.5568C99.425 30.0394 99.7561 30.5664 99.9748 31.1358C100.193 31.7055 100.303 32.3175 100.303 32.971C100.303 33.9226 100.103 34.7688 99.7027 35.5083C99.2976 36.2576 98.6895 36.8899 97.878 37.4044L97.879 37.4055C97.0964 37.9054 96.1538 38.279 95.0539 38.525C93.9781 38.7663 92.7562 38.8864 91.3896 38.8864C88.8795 38.8864 86.8073 38.5313 85.173 37.8208L84.7853 37.6521V37.2823V33.4348V32.1496L85.9377 32.9693Z" fill="#0065AE"/>
    <path fill-rule="evenodd" clip-rule="evenodd" d="M82.2098 19.3651C80.2464 23.7787 75.8557 24.4101 74.0687 24.4101H68.9138H62.8834H36.365C33.1504 24.4101 30.7507 26.5153 32.1422 30.1499L34.9098 37.5038L35.4418 38.8729C36.9449 42.8322 34.4144 45.8419 30.6684 45.718L1.68426 45.7152L1.18467 46.3595C-0.743196 44.493 1.22088 42.7109 2.94207 42.725C3.65694 39.3026 8.2123 39.3026 10.6333 39.3025L16.3368 39.3029C17.7768 39.3359 19.6092 37.9607 18.3818 34.7275L16.5287 29.8459C14.2031 23.7205 18.5675 19.3649 24.3222 19.3657L82.2098 19.3651Z" fill="#E9552F"/>
    <path fill-rule="evenodd" clip-rule="evenodd" d="M77.1473 28.157L77.3105 28.1768C75.121 32.1826 74.2477 33.78 68.9258 33.78H42.5169C39.8511 33.78 39.8511 29.846 42.6768 29.846L73.0998 29.8457C75.3945 29.8939 76.5459 29.1836 77.1473 28.157Z" fill="#E9552F"/>
    <path fill-rule="evenodd" clip-rule="evenodd" d="M71.9778 37.5269L72.141 37.5466C69.9514 41.5524 69.0781 43.15 63.7562 43.15H44.3906C41.7248 43.15 41.7248 39.2158 44.5505 39.2158L67.9302 39.2155C70.225 39.2639 71.3764 38.5532 71.9778 37.5269Z" fill="#E9552F"/>
    <path fill-rule="evenodd" clip-rule="evenodd" d="M60.3657 9.66212C62.7789 12.0755 64.74 14.7697 66.2493 17.6397H51.2565C50.5013 16.9248 49.7231 16.2355 48.9232 15.5743C43.703 11.2599 37.599 8.15444 31.4535 7.07117C24.244 5.79989 18.3406 7.55062 14.625 11.4083C10.9097 15.2654 9.38089 21.2305 10.9215 28.3869C11.2458 29.8562 11.627 31.3305 12.0241 32.7971C12.5757 34.2682 12.6599 35.8998 11.0077 36.1425C10.3801 36.2269 9.74344 36.1974 9.11575 36.2836C7.48143 36.5086 5.86561 37.046 4.39268 37.7833C2.93923 27.8233 6.04243 17.3254 13.7058 9.66212C26.5885 -3.22071 47.4832 -3.22071 60.3657 9.66212ZM22.216 47.7711C28.0007 53.4437 35.2769 57.6175 42.6124 58.9107C50.8353 60.3609 57.3594 57.8794 60.8759 52.8238C61.7521 51.5643 62.441 50.1445 62.9239 48.5868H66.1181C64.6265 51.3656 62.7108 53.9773 60.3657 56.3222C47.4832 69.205 26.5885 69.205 13.7058 56.3222C11.1328 53.7489 9.07549 50.8553 7.53014 47.7711H22.216Z" fill="#0065AE"/>
</svg>
