<svg width="334" height="268" viewBox="0 0 167 134" fill="none" xmlns="http://www.w3.org/2000/svg">
<path fill-rule="evenodd" clip-rule="evenodd" d="M167 39C162.993 47.9926 154.031 49.279 150.384 49.279H139.862H127.554H73.4293C66.8682 49.279 61.9704 53.5682 64.8103 60.9736L70.4591 75.957L71.545 78.7463C74.613 86.8133 69.4481 92.9454 61.8024 92.693L2.64483 92.6874L1.62517 94C-2.30968 90.1971 1.69906 86.5662 5.21206 86.595C6.67114 79.622 15.9688 79.622 20.91 79.6216L32.5512 79.6226C35.4902 79.6898 39.2302 76.8879 36.7249 70.3003L32.9429 60.3543C28.1961 47.8741 37.1041 38.9997 48.8496 39.0013L167 39V39Z" fill="#E9552F"/>
<path fill-rule="evenodd" clip-rule="evenodd" d="M155.672 56L156 56.0458C151.594 65.3068 149.837 69 139.127 69H85.984C80.6195 69 80.6195 59.9049 86.3058 59.9049L147.527 59.9042C152.144 60.0156 154.461 58.3734 155.672 56Z" fill="#E9552F"/>
<path fill-rule="evenodd" clip-rule="evenodd" d="M146.665 77L147 77.0349C142.507 84.1588 140.716 87 129.796 87H90.0621C84.5925 87 84.5925 80.0035 90.3903 80.0035L138.36 80.0029C143.069 80.089 145.431 78.8251 146.665 77V77Z" fill="#E9552F"/>
<path fill-rule="evenodd" clip-rule="evenodd" d="M121.988 19.6217C126.915 24.5227 130.919 29.994 134 35.8225H103.39C101.848 34.3707 100.259 32.9708 98.6259 31.6281C87.968 22.8665 75.5058 16.5599 62.9588 14.36C48.2395 11.7783 36.1868 15.3337 28.6007 23.1679C21.0153 31.0007 17.8941 43.1146 21.0395 57.6477C21.7015 60.6316 22.4798 63.6255 23.2907 66.6038C24.4167 69.5914 24.5888 72.9048 21.2156 73.3977C19.934 73.5692 18.6343 73.5092 17.3528 73.6843C14.016 74.1412 10.7171 75.2326 7.70988 76.7299C4.74242 56.5032 11.0781 35.1842 26.7242 19.6217C53.0262 -6.54057 95.686 -6.54057 121.988 19.6217V19.6217ZM44.099 97.0129C55.9094 108.533 70.7649 117.009 85.7414 119.635C102.53 122.58 115.85 117.541 123.029 107.274C124.818 104.716 126.225 101.833 127.211 98.6694H133.732C130.687 104.313 126.776 109.616 121.988 114.378C95.686 140.541 53.0262 140.541 26.7242 114.378C21.4708 109.153 17.2706 103.276 14.1155 97.0129H44.099V97.0129Z" fill="#0065AE"/>
</svg>
