<svg width="192" height="184" viewBox="0 0 96 92" fill="none" xmlns="http://www.w3.org/2000/svg">
<path d="M87.1558 38.2211C85.0326 38.2211 83.3117 39.9611 83.3117 42.1075V46.0219C83.3059 56.2327 79.3673 65.8301 72.2215 73.046C65.081 80.2566 55.5923 84.2268 45.5007 84.2268C45.4932 84.2268 45.4858 84.2268 45.4784 84.2268C24.6289 84.2148 7.67645 67.0567 7.68834 45.9779C7.6941 35.7673 11.6327 26.1699 18.7787 18.9536C25.9192 11.743 35.4081 7.77282 45.4995 7.77282C45.507 7.77282 45.5144 7.77282 45.5218 7.77282C50.8511 7.77583 56.0217 8.8894 60.8896 11.0822C62.8293 11.9559 65.1012 11.0744 65.9655 9.11395C66.8294 7.15346 65.9581 4.85604 64.0187 3.98225C58.1608 1.34339 51.9392 0.00357034 45.5261 0C45.5165 0 45.509 0 45.4994 0C33.3566 0 21.9371 4.77824 13.3451 13.4546C4.74639 22.1376 0.00707056 33.6866 7.49522e-06 45.9738C-0.0068697 58.2606 4.71907 69.815 13.3081 78.5082C21.8972 87.2015 33.3204 91.9929 45.4739 92C45.4834 92 45.491 92 45.5007 92C57.6434 92 69.0629 87.2219 77.6549 78.5454C86.2536 69.8622 90.9929 58.3133 91 46.0241V42.1077C91 39.9611 89.279 38.2211 87.1558 38.2211Z" fill="#22C232"/>
<path d="M94.8742 5.13609C93.373 3.62124 90.9393 3.62124 89.4382 5.13609L46.3392 48.634L36.5617 38.766C35.0607 37.2509 32.6268 37.2509 31.1258 38.766C29.6247 40.281 29.6247 42.7373 31.1258 44.2523L43.6215 56.8636C44.3719 57.6212 45.3558 58 46.3395 58C47.3233 58 48.307 57.6212 49.0576 56.8636L94.8742 10.6224C96.3753 9.1074 96.3753 6.65112 94.8742 5.13609Z" fill="#22C232"/>
</svg>
